/* XPM */
static char * picture_xpm[] = {
"144 64 10 1",
" 	s None	c None",
".	c black",
"X	c #AEBADB6CE79D",
"o	c #00000000FFFF",
"O	c #000000008207",
"+	c #FFFFE79DC71B",
"@	c #FFFF00000000",
"#	c #0000FFFF0000",
"$	c #FFFFC30BCB2B",
"%	c #B2CA20812081",
"                                                                                                                                ................",
"                                                                                                                                XXXXXX.XXXXXXX.X",
"             .....                            .....                          .....                            .....             oooooO.XoooooO.X",
"           .........                        .........                      .........                        .........           OOOOOO.OOOOOOO.O",
"          ...........                      ...........                    ...........                      ...........          ................",
"         .............                    .............                  .............                    .............         XX.XXXXXXX.XXXXX",
"         .+++++.......                    .......+++++.                  .+++++.......                    .......+++++.         oO.XoooooO.Xoooo",
"        .++++++++......                  ......++++++++.                .++++++++......                  ......++++++++.        OO.OOOOOOO.OOOOO",
"        .+++++++++.....                  .....+++++++++.                .+++++++++.....                  .....+++++++++.        ................",
"   .    .++..++++++....                  ....++++++..++.    .           .++..++++++....                  ....++++++..++.        XXXXXX.XXXXXXX.X",
"  .@.   .++..+++++++...                  ...+++++++..++.   .@.          .++..+++++++...                  ...+++++++..++.        oooooO.XoooooO.X",
"  .@@.  .++++++++++++..   ..        ..   ..++++++++++++.  .@@.          .++++++++++++..                  ..++++++++++++.        OOOOOO.OOOOOOO.O",
"  .@@@.  .+++++++++++.  ..@@.      .@@..  .+++++++++++.  .@@@.  ......   .+++++++++++.                    .+++++++++++.   ......................",
"   .@@@. .+++++++++++. .@@@@.      .@@@@. .+++++++++++. .@@@.   .@@@@@.. .+++++++++++.                    .+++++++++++. ..@@@@@.XX.XXXXXXX.XXXXX",
"   .@@@@...+++++++++...@@@@.        .@@@@...+++++++++...@@@@.    .@@@@@@...+++++++++...........  ...........+++++++++...@@@@@@. oO.XoooooO.Xoooo",
"   .@@@@@@@..+++++..@@@@@@.          .@@@@@@..+++++..@@@@@@@.     .@@@@@@@@..+++++..@@@@@@@@@@@..@@@@@@@@@@@..+++++..@@@@@@@@.  OO.OOOOOOO.OOOOO",
"    .@@@@@@@@.....@@@@@@@.            .@@@@@@@.....@@@@@@@@.       ..@@@@@@@@.....@@@@@@@@@@@@@..@@@@@@@@@@@@@.....@@@@@@@@..   ................",
"     .@@@@@@@@@@@@@@@@@@.              .@@@@@@@@@@@@@@@@@@.          .@@@@@@@@@@@@@@@@@@@@@@@..  ..@@@@@@@@@@@@@@@@@@@@@@@.     .XXXXXXXXXXXXXXX",
"      .@@@@@@@@@@@@@@@@.                .@@@@@@@@@@@@@@@@.            .@@@@@@@@@@@@@@@@@@@@..      ..@@@@@@@@@@@@@@@@@@@@.      .XXXXXXXXXXXXXXO",
"       ..@@@@@@@@@@@@..                  ..@@@@@@@@@@@@..              ..@@@@@@@@@@@@@@@...          ...@@@@@@@@@@@@@@@..       .XXoooooooooooOO",
"         ............                      ............                  ...............                ...............         .XXoooooooooooOO",
"      ...############.                    .############...           ....##############.                .##############....     .XXoooooooooooOO",
"     .################.                  .################.         .###################...          ...###################.    .XXoooooooooooOO",
"    .##################.                .##################.       .#######################..      ..#######################.   .XXoooooooooooOO",
"    .##################.                .##################.      .##########################.    .##########################.  .XXoooooooooooOO",
"   .####################.              .####################.    .###########.....############.  .############.....###########. .XXoooooooooooOO",
"   .######......########.              .########......######.   .######......     ......#######..#######......     ......######..XXoooooooooooOO",
"   .####..      ..#######.            .#######..      ..####.   .##....                 .......  .......                 ....##..XXoooooooooooOO",
"  .####.         ...#####.            .#####...         .####.   ..                                                          .. .XXoooooooooooOO",
"  .###.            ...####.          .####...            .###.                                                                  .XXoooooooooooOO",
"  .##.                ..##.          .##..                .##.                                                                  .XOOOOOOOOOOOOOO",
"   ..                   ..            ..                   ..                                                                   .OOOOOOOOOOOOOOO",
"                                                                                                                                ................",
"                                                                                                                                .XXXXXXXXXXXXXXX",
"                                                                                                                                .XXXXXXXXXXXXXXO",
"            ..                                    ..                                         ..  ..                             .XXoooooooooooOO",
"           .@@.                                  .@@.            .......                 ....##..##....                 ....... .XXoooooooooooOO",
"           .@@@.             ..  ..             .@@@.           .#######......     ......######..######......     ......#######..XXoooooooooooOO",
"            .@@@.          ..##..##..          .@@@.             .############.....###########.  .###########.....############. .XXoooooooooooOO",
"            .@@@@.       ..####..####..       .@@@@.              .##########################.    .##########################.  .XXoooooooooooOO",
"             .@@@@.    ..#####.  .#####..    .@@@@.                ..#######################.      .#######################..   .XXoooooooooooOO",
"       .....  .@@@@.  .#######.  .#######.  .@@@@.  .....            ...###################.        .###################...     .XXoooooooooooOO",
"     ..........@@@@. .#######.    .#######. .@@@@..........             .##############....          ....##############.        .XXoooooooooooOO",
"    .......+++.@@@@@.########.    .########.@@@@@.+++.......            ...............                  ...............        .XXoooooooooooOO",
"   .......+++++.@@@@.#######..    ..#######.@@@@.+++++.......        ...@@@@@@@@@@@@@@@..              ..@@@@@@@@@@@@@@@...     .XXoooooooooooOO",
"   ......++++++.@@@@.#######.      .#######.@@@@.++++++......      ..@@@@@@@@@@@@@@@@@@@@.            .@@@@@@@@@@@@@@@@@@@@..   .XXoooooooooooOO",
"  ......++++++++.@@@.######..      ..######.@@@.++++++++......   ..@@@@@@@@@@@@@@@@@@@@@@@.          .@@@@@@@@@@@@@@@@@@@@@@@.. .XOOOOOOOOOOOOOO",
"  .....+++++++++.@@@.######.        .######.@@@.+++++++++.....  .@@@@@@@@@@@@@.....@@@@@@@@..      ..@@@@@@@@.....@@@@@@@@@@@@@..OOOOOOOOOOOOOOO",
"  .....+++++++++.@@@.#####.          .#####.@@@.+++++++++.....  .@@@@@@@@@@@..+++++..@@@@@@@@.    .@@@@@@@@..+++++..@@@@@@@@@@@.................",
"  ....++++++++++.@@@.#####.          .#####.@@@.++++++++++....   ...........+++++++++...@@@@@@.  .@@@@@@...+++++++++........... .$$$$$$$$$$$$$$$",
"  ....++++++++++.@@@.#####.          .#####.@@@.++++++++++....            .+++++++++++. ..@@@@@..@@@@@.. .+++++++++++.          .$$$$$$$$$$$$$$%",
"   ...+++..++++.@@@@.#####.          .#####.@@@@.++++..+++...             .+++++++++++.   ............   .+++++++++++.          .$$@@@@@@@@@@@%%",
"   ...+++..++++.@@@@.#####.          .#####.@@@@.++++..+++...            ..++++++++++++.                .++++++++++++..         .$$@@@@@@@@@@@%%",
"    ..++++++++.@@@@@.#####.          .#####.@@@@@.++++++++..             ...+++++++..++.                .++..+++++++...         .$$@@@@@@@@@@@%%",
"     ..+++++...@@@@@.######.        .######.@@@@@...+++++..              ....++++++..++.                .++..++++++....         .$$@@@@@@@@@@@%%",
"       .....  .@@@@. .#####.        .#####. .@@@@.  .....                .....+++++++++.                .+++++++++.....         .$$@@@@@@@@@@@%%",
"             .@@@@@. .######.      .######. .@@@@@.                      ......++++++++.                .++++++++......         .$$@@@@@@@@@@@%%",
"            .@@@@@.  .#######.    .#######.  .@@@@@.                      .......+++++.                  .+++++.......          .$$@@@@@@@@@@@%%",
"           .@@@@@.    .#######.  .#######.    .@@@@@.                     .............                  .............          .$$%%%%%%%%%%%%%",
"          .@@@@@.      ..######..######..      .@@@@@.                     ...........                    ...........           .$%%%%%%%%%%%%%%",
"         .@@@...         ...###..###...         ...@@@.                     .........                      .........            ................",
"          ...               ...  ...               ...                        .....                          .....              XX.XXXXXXX.XXXXX",
"                                                                                                                                oO.XoooooO.Xoooo",
"                                                                                                                                OO.OOOOOOO.OOOOO"};
