/* XPM */
static char * xjump_icon_xpm[] = {
"32 32 5 1",
" 	c None",
".	c #000000",
"+	c #FFE7C7",
"@	c #FF0000",
"#	c #00FF00",
"                                ",
"                                ",
"                                ",
"              .....             ",
"            .........           ",
"           ...........          ",
"          .............         ",
"          .......+++++.         ",
"         ......++++++++.        ",
"         .....+++++++++.        ",
"         ....++++++..++.        ",
"         ...+++++++..++.        ",
"         ..++++++++++++.        ",
"         ..+++++++++++..  ......",
"          .+++++++++++. ..@@@@@.",
" ...........+++++++++...@@@@@@. ",
".@@@@@@@@@@@..+++++..@@@@@@@@.  ",
".@@@@@@@@@@@@@.....@@@@@@@@..   ",
" ..@@@@@@@@@@@@@@@@@@@@@@@.     ",
"   ..@@@@@@@@@@@@@@@@@@@@.      ",
"     ...@@@@@@@@@@@@@@@..       ",
"        ...............         ",
"        .##############....     ",
"     ...###################.    ",
"   ..#######################.   ",
"  .##########################.  ",
" .############.....###########. ",
".#######......     ......######.",
" .......                 ....##.",
"                             .. ",
"                                ",
"                                "};
